<svg xmlns="http://www.w3.org/2000/svg" width="400" height="520" viewBox="0 0 400 520">
  <path d="M140 30 C140 15 160 0 200 0 C240 0 260 15 260 30
    L270 30 C290 30 340 50 360 80 L380 140 L340 160 L320 100
    L320 480 C320 500 310 510 290 510 L110 510 C90 510 80 500 80 480
    L80 100 L60 160 L20 140 L40 80 C60 50 110 30 130 30 Z"
    fill="white" stroke="none"/>
  <path d="M200 0 C180 0 165 10 158 25 L158 100 C175 130 225 130 242 100 L242 25 C235 10 220 0 200 0 Z"
    fill="white" stroke="none" opacity="0.7"/>
</svg>
